<?xml version="1.0" encoding="UTF-8" ?>
<svg xmlns="http://www.w3.org/2000/svg" width="192" height="48">
  <rect x="0" y="0" width="24" height="24" fill="#080808" />
  <rect x="24" y="0" width="24" height="24" fill="#121212" />
  <rect x="48" y="0" width="24" height="24" fill="#1c1c1c" />
  <rect x="72" y="0" width="24" height="24" fill="#262626" />
  <rect x="96" y="0" width="24" height="24" fill="#ff5f00" />
  <rect x="120" y="0" width="24" height="24" fill="#ff0087" />
  <rect x="144" y="0" width="24" height="24" fill="#afaf87" />
  <rect x="168" y="0" width="24" height="24" fill="#00afff" />

  <rect x="0" y="24" width="24" height="24" fill="#ffffff" />
  <rect x="24" y="24" width="24" height="24" fill="#dadada" />
  <rect x="48" y="24" width="24" height="24" fill="#808080" />
  <rect x="72" y="24" width="24" height="24" fill="#585858" />
  <rect x="96" y="24" width="24" height="24" fill="#8700ff" />
  <rect x="120" y="24" width="24" height="24" fill="#00af87" />
  <rect x="144" y="24" width="24" height="24" fill="#ffffaf" />
  <rect x="168" y="24" width="24" height="24" fill="#afd7ff" />
</svg>
